<?xml version="1.0" encoding="UTF-8"?>
<svg version="1.1" xmlns="http://www.w3.org/2000/svg" width="512" height="512">
<path d="M0 0 C37.29 0 74.58 0 113 0 C113 122.1 113 244.2 113 370 C76.04 370 39.08 370 1 370 C0 369 0 369 -0.1241985 366.5097627 C-0.12381878 365.38920801 -0.12343906 364.26865332 -0.12304783 363.11414242 C-0.12503888 361.8267784 -0.12702993 360.53941439 -0.12908131 359.21303934 C-0.12622771 357.76571888 -0.1232821 356.3183986 -0.12025452 354.87107849 C-0.12069008 353.34816392 -0.12156472 351.82524942 -0.12284368 350.30233532 C-0.12509148 346.09740446 -0.12106349 341.89249882 -0.11606562 337.68757117 C-0.11176537 333.16062075 -0.11320724 328.63367186 -0.1139679 324.10671997 C-0.1144934 316.25680133 -0.11134383 308.40689097 -0.10573006 300.55697441 C-0.09761865 289.20717577 -0.09500021 277.85738115 -0.09374207 266.50757993 C-0.09155098 248.09530166 -0.08488936 229.68302782 -0.07543945 211.27075195 C-0.0662668 193.38012718 -0.05918525 175.4895036 -0.05493164 157.59887695 C-0.05466892 156.49693831 -0.05440619 155.39499966 -0.05413551 154.25966894 C-0.05283051 148.73181729 -0.0515668 143.20396563 -0.05032361 137.67611396 C-0.03994923 91.78407205 -0.02150998 45.89203831 0 0 Z " fill="#05A9E8" transform="translate(391,127)"/>
<path d="M0 0 C36.96 0 73.92 0 112 0 C112 106.26 112 212.52 112 322 C75.04 322 38.08 322 0 322 C-1.68943721 320.31056279 -1.12545408 318.19750976 -1.12584114 315.88218689 C-1.12844889 314.76612596 -1.13105664 313.65006502 -1.13374341 312.50018406 C-1.13039732 310.63792132 -1.13039732 310.63792132 -1.12698364 308.73803711 C-1.12854363 307.43115149 -1.13010362 306.12426588 -1.13171089 304.77777767 C-1.13590877 301.1334554 -1.13381146 297.48915911 -1.13072467 293.84483671 C-1.12847264 289.92114296 -1.13194919 285.99745384 -1.13470459 282.07376099 C-1.13916341 274.38060235 -1.13818533 266.68745343 -1.13529195 258.9942944 C-1.13303835 252.74480182 -1.1327252 246.49531197 -1.13381577 240.24581909 C-1.133969 239.35812771 -1.13412223 238.47043632 -1.13428011 237.5558452 C-1.13459982 235.75281246 -1.13492403 233.94977973 -1.1352527 232.14674699 C-1.13810782 215.21891611 -1.13481997 198.29109063 -1.12945233 181.36326063 C-1.12498427 166.82192365 -1.12576019 152.28059465 -1.13037109 137.73925781 C-1.13571629 120.87415847 -1.13783312 104.00906388 -1.13475883 87.14396381 C-1.13444026 85.34736951 -1.13412589 83.55077521 -1.13381577 81.75418091 C-1.13366149 80.87010132 -1.13350721 79.98602174 -1.13334826 79.07515186 C-1.13248294 72.82938679 -1.1339463 66.58362471 -1.13629532 60.33786011 C-1.13909292 52.7317879 -1.13835591 45.12572601 -1.13301457 37.51965499 C-1.13037701 33.63505723 -1.12937341 29.75047671 -1.13266373 25.86587906 C-1.13616863 21.66455849 -1.13199863 17.4632819 -1.12698364 13.26196289 C-1.12921436 12.0204544 -1.13144509 10.7789459 -1.13374341 9.49981594 C-1.13113566 8.38375501 -1.12852791 7.26769407 -1.12584114 6.11781311 C-1.12567879 5.14665086 -1.12551644 4.17548861 -1.12534916 3.17489719 C-1 1 -1 1 0 0 Z " fill="#38B449" transform="translate(264,175)"/>
<path d="M0 0 C37.29 0 74.58 0 113 0 C113 90.09 113 180.18 113 273 C76.04 273 39.08 273 1 273 C0 272 0 272 -0.1241985 270.13172954 C-0.12381878 269.30583782 -0.12343906 268.47994611 -0.12304783 267.62902737 C-0.12503888 266.67955272 -0.12702993 265.73007808 -0.12908131 264.75183147 C-0.12616847 263.69640638 -0.12325563 262.64098128 -0.12025452 261.55357361 C-0.12110894 260.44199294 -0.12196337 259.33041227 -0.12284368 258.18514735 C-0.12450174 254.4293238 -0.1189718 250.6735441 -0.11352539 246.91772461 C-0.11324356 244.2378072 -0.11335705 241.55789254 -0.1139679 238.87797546 C-0.11449332 233.09230526 -0.11134456 227.3066463 -0.10573006 221.52097893 C-0.0976176 213.15578183 -0.0950001 204.7905902 -0.09374207 196.4253896 C-0.09155114 182.85479766 -0.08488997 169.28421172 -0.07543945 155.71362305 C-0.06626637 142.52775096 -0.05918503 129.34188049 -0.05493164 116.15600586 C-0.05466892 115.34380579 -0.05440619 114.53160571 -0.05413551 113.69479351 C-0.05283051 109.62039678 -0.05156679 105.54600003 -0.05032361 101.47160327 C-0.03994974 67.6477302 -0.02151077 33.82386828 0 0 Z " fill="#FAAF3A" transform="translate(135,224)"/>
<path d="M0 0 C37.29 0 74.58 0 113 0 C113 74.25 113 148.5 113 225 C76.04 225 39.08 225 1 225 C-0.85997082 223.14002918 -0.12278187 220.48315321 -0.12908131 218.00814098 C-0.12471205 216.70515162 -0.12471205 216.70515162 -0.12025452 215.37583923 C-0.12110894 214.46026908 -0.12196337 213.54469893 -0.12284368 212.60138422 C-0.12450129 209.50889494 -0.11897254 206.41645896 -0.11352539 203.32397461 C-0.11324355 201.11695863 -0.11340118 198.90994256 -0.1139679 196.70292664 C-0.11425601 190.69077275 -0.10835711 184.67863863 -0.10139394 178.66648936 C-0.09516263 172.39106899 -0.09455678 166.11564821 -0.09336853 159.84022522 C-0.09060884 149.30062523 -0.08435333 138.76103175 -0.07543945 128.22143555 C-0.06626602 117.36368852 -0.05919631 106.50594347 -0.05493164 95.64819336 C-0.05452964 94.63471434 -0.05452964 94.63471434 -0.05411953 93.600761 C-0.0518068 87.72392217 -0.04965395 81.8470833 -0.04751682 75.97024441 C-0.03810043 50.64682275 -0.01818195 25.32342039 0 0 Z " fill="#EC1B23" transform="translate(7,272)"/>
<path d="M0 0 C7.5967923 5.47579007 12.4629001 11.95323587 15 21 C15.99300601 30.74531476 15.18171693 39.1311052 9.421875 47.21484375 C4.28426433 53.42857558 -1.15587077 57.86324795 -9 60 C-18.01866782 60.81130275 -27.07988654 60.94829351 -35 56 C-37.15671873 54.18301218 -39.17045436 52.33694064 -41.11328125 50.29296875 C-42.91021779 48.76054151 -42.91021779 48.76054151 -45.09106445 49.2277832 C-48.97305762 50.25831148 -52.67656893 51.63898809 -56.4296875 53.0625 C-57.24928955 53.3700975 -58.0688916 53.67769501 -58.91333008 53.99461365 C-61.5686904 54.99255148 -64.22186308 55.99616766 -66.875 57 C-68.69149253 57.6838783 -70.50806174 58.36755299 -72.32470703 59.05102539 C-83.14463855 63.12866305 -93.94302104 67.25640992 -104.67529297 71.56054688 C-105.50174316 71.88990234 -106.32819336 72.21925781 -107.1796875 72.55859375 C-107.87819824 72.84017334 -108.57670898 73.12175293 -109.29638672 73.41186523 C-111 74 -111 74 -113 74 C-112.9175 75.27875 -112.835 76.5575 -112.75 77.875 C-112.7902318 86.41755136 -116.35501614 93.12669977 -122.140625 99.24609375 C-130.24082912 106.88683251 -138.05349144 108.59118771 -149.015625 108.30859375 C-156.56014438 107.72426333 -161.68704783 105.38361346 -167.28125 100.34765625 C-167.98314453 99.71996338 -168.68503906 99.09227051 -169.40820312 98.44555664 C-169.93349609 97.96852295 -170.45878906 97.49148926 -171 97 C-176.5174807 98.99436895 -182.03407906 100.99022967 -187.53222656 103.03735352 C-188.93420169 103.5588724 -190.33622121 104.08027195 -191.73828125 104.6015625 C-192.82899429 105.00733772 -192.82899429 105.00733772 -193.94174194 105.42131042 C-198.90576072 107.25676244 -203.89412181 109.00628786 -208.90220642 110.71760559 C-212.48337464 111.95073255 -216.04917699 113.22491813 -219.61349487 114.50582886 C-221.36603431 115.12512992 -223.12490899 115.72679641 -224.88967896 116.31033325 C-230.26214864 118.09316542 -235.25987476 119.86714462 -240 123 C-241.61193383 126.27628171 -241.97260476 128.53943019 -241.97290039 132.17089844 C-242.0324907 138.3919123 -246.23237056 143.41564819 -250.3125 147.8125 C-258.05161259 155.11131297 -266.6405609 156.4644336 -276.90625 156.27734375 C-284.92810694 155.90752879 -290.86531603 152.87821203 -296.33203125 147.07421875 C-297.98913238 145.75185373 -297.98913238 145.75185373 -300.2409668 146.30152893 C-303.1974345 147.04998211 -305.96234103 148.01545844 -308.8125 149.10131836 C-310.52953125 149.7522068 -310.52953125 149.7522068 -312.28125 150.41624451 C-314.12203125 151.12092613 -314.12203125 151.12092613 -316 151.83984375 C-317.2811244 152.32719899 -318.56237648 152.81421871 -319.84375 153.30091858 C-323.20999861 154.58060045 -326.5744073 155.86505358 -329.93847656 157.15045166 C-333.35364509 158.45429457 -336.77069169 159.75319628 -340.1875 161.05273438 C-345.18839517 162.95590696 -350.18870972 164.86059132 -355.1875 166.76928711 C-356.19167969 167.15265732 -357.19585937 167.53602753 -358.23046875 167.93101501 C-360.05777382 168.63631909 -361.87366782 169.37203123 -363.67578125 170.13941956 C-366 171 -366 171 -369 171 C-368.9175 172.27875 -368.835 173.5575 -368.75 174.875 C-368.80593075 183.79595529 -372.67877468 190.63718669 -378.7109375 197.01953125 C-386.43007985 203.69803837 -394.69253895 205.38453204 -404.61328125 205.2734375 C-414.4226 204.48145098 -421.00971873 199.39314252 -427.5 192.37890625 C-432.64185782 185.99749342 -434.86549245 177.0779295 -434 169 C-432.03474713 158.14197789 -427.08264939 150.33213029 -418 144 C-410.35228924 139.8076789 -401.66884279 138.62215627 -393.1875 140.68359375 C-385.26563958 143.33521647 -378.86396154 147.11927392 -374 154 C-367.94746027 152.02490601 -361.96195203 149.91502652 -356.00390625 147.671875 C-355.17148911 147.35978088 -354.33907196 147.04768677 -353.48143005 146.72613525 C-351.72731364 146.06805087 -349.97349774 145.40916496 -348.2199707 144.74951172 C-345.60118774 143.764551 -342.98134488 142.78245466 -340.36132812 141.80078125 C-331.81947124 138.59616381 -323.28861766 135.36317246 -314.77734375 132.078125 C-314.00661026 131.78258728 -313.23587677 131.48704956 -312.44178772 131.18255615 C-308.96073293 130.02809553 -308.96073293 130.02809553 -306 128 C-306.04125 126.865625 -306.0825 125.73125 -306.125 124.5625 C-306.18882455 115.62706311 -302.73443443 107.75705366 -297 101 C-289.24797413 93.6492177 -281.41080859 91.49261164 -270.93359375 91.58032227 C-261.75207835 91.91452771 -256.32556854 95.17167633 -249.82421875 101.4140625 C-247.89613818 103.09029529 -246.38625505 104.08691651 -244 105 C-241.86497014 104.70066828 -241.86497014 104.70066828 -239.70068359 103.77758789 C-238.4368837 103.30072289 -238.4368837 103.30072289 -237.14755249 102.81422424 C-236.24034454 102.45400681 -235.3331366 102.09378937 -234.3984375 101.72265625 C-233.44796539 101.35909531 -232.49749329 100.99553436 -231.51821899 100.62095642 C-228.46474915 99.4490875 -225.42000431 98.2561706 -222.375 97.0625 C-220.37814229 96.29222331 -218.38075105 95.52332824 -216.3828125 94.75585938 C-208.78431008 91.83002616 -201.19762989 88.87513229 -193.62988281 85.87060547 C-192.79913239 85.54257431 -191.96838196 85.21454315 -191.11245728 84.87657166 C-189.56459745 84.26481056 -188.01840085 83.64881787 -186.47421265 83.02784729 C-183.49724676 81.85292595 -181.23163919 81 -178 81 C-178.061875 79.72125 -178.12375 78.4425 -178.1875 77.125 C-178.14420418 67.91742174 -174.9440426 60.00404116 -169 53 C-162.40668501 46.7479539 -154.18478995 43 -145 43 C-135.93422929 43.84950121 -128.59067784 45.99968281 -122.375 52.8125 C-121.86710937 53.43769531 -121.35921875 54.06289062 -120.8359375 54.70703125 C-119.02027794 56.28091917 -119.02027794 56.28091917 -116.42260742 55.77441406 C-112.25170808 54.83068821 -108.39046043 53.42896455 -104.40234375 51.90234375 C-103.16686043 51.43684616 -103.16686043 51.43684616 -101.90641785 50.96194458 C-99.24813725 49.95893365 -96.59284731 48.94824761 -93.9375 47.9375 C-92.1204712 47.25071449 -90.30325078 46.56443574 -88.48583984 45.87866211 C-80.90352376 43.01450732 -73.32889694 40.13046575 -65.76171875 37.2265625 C-64.78017822 36.85023682 -63.7986377 36.47391113 -62.78735352 36.08618164 C-61.06113649 35.42244684 -59.33627165 34.75518034 -57.61303711 34.08374023 C-52.21610855 32 -52.21610855 32 -50 32 C-50.0928125 30.329375 -50.0928125 30.329375 -50.1875 28.625 C-50.1400686 19.66046485 -46.76418986 11.79211536 -41 5 C-30.42610712 -5.02658993 -12.6239637 -8.55904739 0 0 Z " fill="#000000" transform="translate(465,20)"/>
<path d="M0 0 C37.29 0 74.58 0 113 0 C113 122.1 113 244.2 113 370 C76.04 370 39.08 370 1 370 C0 369 0 369 -0.1241985 366.5097627 C-0.12381878 365.38920801 -0.12343906 364.26865332 -0.12304783 363.11414242 C-0.12503888 361.8267784 -0.12702993 360.53941439 -0.12908131 359.21303934 C-0.12622771 357.76571888 -0.1232821 356.3183986 -0.12025452 354.87107849 C-0.12069008 353.34816392 -0.12156472 351.82524942 -0.12284368 350.30233532 C-0.12509148 346.09740446 -0.12106349 341.89249882 -0.11606562 337.68757117 C-0.11176537 333.16062075 -0.11320724 328.63367186 -0.1139679 324.10671997 C-0.1144934 316.25680133 -0.11134383 308.40689097 -0.10573006 300.55697441 C-0.09761865 289.20717577 -0.09500021 277.85738115 -0.09374207 266.50757993 C-0.09155098 248.09530166 -0.08488936 229.68302782 -0.07543945 211.27075195 C-0.0662668 193.38012718 -0.05918525 175.4895036 -0.05493164 157.59887695 C-0.05466892 156.49693831 -0.05440619 155.39499966 -0.05413551 154.25966894 C-0.05283051 148.73181729 -0.0515668 143.20396563 -0.05032361 137.67611396 C-0.03994923 91.78407205 -0.02150998 45.89203831 0 0 Z M17 17 C17 127.88 17 238.76 17 353 C43.4 353 69.8 353 97 353 C97 242.12 97 131.24 97 17 C70.6 17 44.2 17 17 17 Z " fill="#000000" transform="translate(391,127)"/>
<path d="M0 0 C36.96 0 73.92 0 112 0 C112 106.26 112 212.52 112 322 C75.04 322 38.08 322 0 322 C-1.68943721 320.31056279 -1.12545408 318.19750976 -1.12584114 315.88218689 C-1.12844889 314.76612596 -1.13105664 313.65006502 -1.13374341 312.50018406 C-1.13039732 310.63792132 -1.13039732 310.63792132 -1.12698364 308.73803711 C-1.12854363 307.43115149 -1.13010362 306.12426588 -1.13171089 304.77777767 C-1.13590877 301.1334554 -1.13381146 297.48915911 -1.13072467 293.84483671 C-1.12847264 289.92114296 -1.13194919 285.99745384 -1.13470459 282.07376099 C-1.13916341 274.38060235 -1.13818533 266.68745343 -1.13529195 258.9942944 C-1.13303835 252.74480182 -1.1327252 246.49531197 -1.13381577 240.24581909 C-1.133969 239.35812771 -1.13412223 238.47043632 -1.13428011 237.5558452 C-1.13459982 235.75281246 -1.13492403 233.94977973 -1.1352527 232.14674699 C-1.13810782 215.21891611 -1.13481997 198.29109063 -1.12945233 181.36326063 C-1.12498427 166.82192365 -1.12576019 152.28059465 -1.13037109 137.73925781 C-1.13571629 120.87415847 -1.13783312 104.00906388 -1.13475883 87.14396381 C-1.13444026 85.34736951 -1.13412589 83.55077521 -1.13381577 81.75418091 C-1.13366149 80.87010132 -1.13350721 79.98602174 -1.13334826 79.07515186 C-1.13248294 72.82938679 -1.1339463 66.58362471 -1.13629532 60.33786011 C-1.13909292 52.7317879 -1.13835591 45.12572601 -1.13301457 37.51965499 C-1.13037701 33.63505723 -1.12937341 29.75047671 -1.13266373 25.86587906 C-1.13616863 21.66455849 -1.13199863 17.4632819 -1.12698364 13.26196289 C-1.12921436 12.0204544 -1.13144509 10.7789459 -1.13374341 9.49981594 C-1.13113566 8.38375501 -1.12852791 7.26769407 -1.12584114 6.11781311 C-1.12567879 5.14665086 -1.12551644 4.17548861 -1.12534916 3.17489719 C-1 1 -1 1 0 0 Z M16 17 C16 112.04 16 207.08 16 305 C42.4 305 68.8 305 96 305 C96 209.96 96 114.92 96 17 C69.6 17 43.2 17 16 17 Z " fill="#000000" transform="translate(264,175)"/>
<path d="M0 0 C37.29 0 74.58 0 113 0 C113 90.09 113 180.18 113 273 C76.04 273 39.08 273 1 273 C0 272 0 272 -0.1241985 270.13172954 C-0.12381878 269.30583782 -0.12343906 268.47994611 -0.12304783 267.62902737 C-0.12503888 266.67955272 -0.12702993 265.73007808 -0.12908131 264.75183147 C-0.12616847 263.69640638 -0.12325563 262.64098128 -0.12025452 261.55357361 C-0.12110894 260.44199294 -0.12196337 259.33041227 -0.12284368 258.18514735 C-0.12450174 254.4293238 -0.1189718 250.6735441 -0.11352539 246.91772461 C-0.11324356 244.2378072 -0.11335705 241.55789254 -0.1139679 238.87797546 C-0.11449332 233.09230526 -0.11134456 227.3066463 -0.10573006 221.52097893 C-0.0976176 213.15578183 -0.0950001 204.7905902 -0.09374207 196.4253896 C-0.09155114 182.85479766 -0.08488997 169.28421172 -0.07543945 155.71362305 C-0.06626637 142.52775096 -0.05918503 129.34188049 -0.05493164 116.15600586 C-0.05466892 115.34380579 -0.05440619 114.53160571 -0.05413551 113.69479351 C-0.05283051 109.62039678 -0.05156679 105.54600003 -0.05032361 101.47160327 C-0.03994974 67.6477302 -0.02151077 33.82386828 0 0 Z M17 16 C17 95.2 17 174.4 17 256 C43.4 256 69.8 256 97 256 C97 176.8 97 97.6 97 16 C70.6 16 44.2 16 17 16 Z " fill="#000000" transform="translate(135,224)"/>
<path d="M0 0 C37.29 0 74.58 0 113 0 C113 74.25 113 148.5 113 225 C76.04 225 39.08 225 1 225 C-0.85997082 223.14002918 -0.12278187 220.48315321 -0.12908131 218.00814098 C-0.12471205 216.70515162 -0.12471205 216.70515162 -0.12025452 215.37583923 C-0.12110894 214.46026908 -0.12196337 213.54469893 -0.12284368 212.60138422 C-0.12450129 209.50889494 -0.11897254 206.41645896 -0.11352539 203.32397461 C-0.11324355 201.11695863 -0.11340118 198.90994256 -0.1139679 196.70292664 C-0.11425601 190.69077275 -0.10835711 184.67863863 -0.10139394 178.66648936 C-0.09516263 172.39106899 -0.09455678 166.11564821 -0.09336853 159.84022522 C-0.09060884 149.30062523 -0.08435333 138.76103175 -0.07543945 128.22143555 C-0.06626602 117.36368852 -0.05919631 106.50594347 -0.05493164 95.64819336 C-0.05452964 94.63471434 -0.05452964 94.63471434 -0.05411953 93.600761 C-0.0518068 87.72392217 -0.04965395 81.8470833 -0.04751682 75.97024441 C-0.03810043 50.64682275 -0.01818195 25.32342039 0 0 Z M17 16 C17 79.36 17 142.72 17 208 C43.4 208 69.8 208 97 208 C97 144.64 97 81.28 97 16 C70.6 16 44.2 16 17 16 Z " fill="#000000" transform="translate(7,272)"/>
<path d="M0 0 C5.00230198 2.45567552 8.49851535 5.9970307 11 11 C11.54099901 17.27558851 10.75004792 21.82791556 7 27 C1.80204084 31.13715117 -2.35806438 32.65330514 -9 32 C-14.42871123 29.65025932 -18.48737368 26.44402369 -21 21 C-21.93556568 15.11776521 -21.07242738 10.15374915 -18 5 C-13.047973 -0.57279391 -7.12645322 -1.16262379 0 0 Z " fill="#006EB8" transform="translate(69,177)"/>
<path d="M0 0 C4.83898361 1.73224316 8.16508025 4.74762037 11 9 C12.66666583 13.9999975 12.57623861 18.28654087 10.5 23.125 C8.01147167 27.61308268 4.77778082 30.1714666 0 32 C-4.75573434 32.90930284 -7.99000412 32.5145262 -12.3125 30.3125 C-16.44673697 26.7551333 -19.58789927 23.54676857 -20.23828125 17.94921875 C-20.42001793 12.41103242 -19.74513006 9.35244845 -16 5 C-10.65336668 0.28987065 -7.04184942 -0.83116911 0 0 Z " fill="#006FB9" transform="translate(196,128)"/>
<path d="M0 0 C4.69327902 2.65657303 7.56838922 5.64266766 9.3125 10.875 C9.89415762 16.80790775 8.72951288 21.0681929 5.3125 25.875 C0.49349118 29.71053763 -3.42598987 31.24730198 -9.62890625 31.15625 C-14.21300615 30.52995931 -17.02081056 27.61376397 -20 24.3125 C-23.14435936 19.7706476 -23.34788084 15.23142235 -22.6875 9.875 C-17.75424094 0.19119517 -10.20911806 -3.11464619 0 0 Z " fill="#006FB9" transform="translate(326.6875,81.125)"/>
<path d="M0 0 C4.49174728 1.75422004 7.88361287 4.30812456 10.5 8.375 C12.41651498 13.00657787 12.91669546 16.26021356 11.3046875 21.078125 C9.1634833 25.9363194 6.78333319 28.45567383 2 31 C-1.72799895 32.24266632 -5.12782994 32.52902513 -9 32 C-14.29112204 29.25268663 -18.09375244 25.71874267 -20 20 C-20.54225459 15.33305478 -20.4698456 11.92228952 -18.3125 7.6875 C-12.82853218 1.3142401 -8.32730703 -1.15546365 0 0 Z " fill="#006FB9" transform="translate(452,32)"/>
</svg>
